<svg xmlns="http://www.w3.org/2000/svg" viewBox="0 0 920 250" role="img" aria-labelledby="title desc">
  <title id="title">Ce Constroi</title>
  <desc id="desc">Logo Ce Constroi para fundos escuros</desc>
  <g fill="#fff">
    <path d="M195.5 34.3c-20.6-15-46.4-23-74.2-21.1C63.5 17.2 17.7 64.7 15.5 122.6c-2.4 63 47.4 115.1 109.9 115.1 27.2 0 52.1-9.9 71.2-26.2l-31.8-35.6c-10.8 8.6-24.5 13.8-39.4 13.8-35.5 0-64.2-28.8-64.2-64.2s28.8-64.2 64.2-64.2c14.6 0 28.1 4.9 38.9 13.1l31.2-40.1Z"/>
    <path d="M56.5 121.5 125.1 58l68.6 63.5h-20.4v58.7H76.9v-58.7H56.5Z" fill="#10120f"/>
    <rect x="111.6" y="126" width="15.4" height="15.4" fill="#fff"/>
    <rect x="133.4" y="126" width="15.4" height="15.4" fill="#fff"/>
    <rect x="111.6" y="147.8" width="15.4" height="15.4" fill="#fff"/>
    <rect x="133.4" y="147.8" width="15.4" height="15.4" fill="#fff"/>
  </g>
  <g fill="#fff">
    <text x="300" y="105" font-family="Arial Black, Impact, Arial, sans-serif" font-size="56" font-weight="900" letter-spacing="3">C&#202; CONSTROI</text>
    <text x="312" y="151" font-family="Arial, Helvetica, sans-serif" font-size="26" font-weight="500" letter-spacing="0">Transformando sonhos em realidade</text>
  </g>
</svg>
